<svg width="123" height="110" viewBox="0 0 123 110" fill="none" xmlns="http://www.w3.org/2000/svg">
<path d="M26.2734 61.9062C26.2578 63.125 26.1484 64.3594 25.9453 65.6094C25.7578 66.8438 25.4609 68.0391 25.0547 69.1953C24.6484 70.3516 24.125 71.4297 23.4844 72.4297C22.8594 73.4297 22.1094 74.3047 21.2344 75.0547C20.3594 75.8047 19.3516 76.3984 18.2109 76.8359C17.0859 77.2578 15.8203 77.4688 14.4141 77.4688C13.0078 77.4688 11.7344 77.2578 10.5938 76.8359C9.46875 76.3984 8.46875 75.8047 7.59375 75.0547C6.71875 74.3047 5.96094 73.4297 5.32031 72.4297C4.67969 71.4141 4.14844 70.3281 3.72656 69.1719C3.32031 68.0156 3.01562 66.8203 2.8125 65.5859C2.60938 64.3516 2.5 63.125 2.48438 61.9062V58.0156C2.5 56.7969 2.60156 55.5703 2.78906 54.3359C2.99219 53.0859 3.29688 51.8828 3.70312 50.7266C4.125 49.5703 4.64844 48.4922 5.27344 47.4922C5.91406 46.4766 6.67188 45.5938 7.54688 44.8438C8.42188 44.0781 9.42188 43.4844 10.5469 43.0625C11.6875 42.625 12.9609 42.4062 14.3672 42.4062C15.7734 42.4062 17.0469 42.625 18.1875 43.0625C19.3281 43.4844 20.3359 44.0703 21.2109 44.8203C22.0859 45.5703 22.8359 46.4531 23.4609 47.4688C24.1016 48.4688 24.625 49.5469 25.0312 50.7031C25.4531 51.8594 25.7578 53.0625 25.9453 54.3125C26.1484 55.5625 26.2578 56.7969 26.2734 58.0156V61.9062ZM21.9844 57.9688C21.9688 57.1562 21.9141 56.3125 21.8203 55.4375C21.7266 54.5469 21.5625 53.6719 21.3281 52.8125C21.1094 51.9375 20.8125 51.1094 20.4375 50.3281C20.0625 49.5312 19.5938 48.8359 19.0312 48.2422C18.4688 47.6328 17.8047 47.1562 17.0391 46.8125C16.2734 46.4531 15.3828 46.2734 14.3672 46.2734C13.3672 46.2734 12.4844 46.4531 11.7188 46.8125C10.9531 47.1719 10.2891 47.6562 9.72656 48.2656C9.16406 48.8594 8.69531 49.5547 8.32031 50.3516C7.94531 51.1328 7.64062 51.9609 7.40625 52.8359C7.1875 53.6953 7.02344 54.5703 6.91406 55.4609C6.82031 56.3359 6.76562 57.1719 6.75 57.9688V61.9062C6.76562 62.7031 6.82031 63.5469 6.91406 64.4375C7.02344 65.3281 7.19531 66.2109 7.42969 67.0859C7.66406 67.9453 7.96875 68.7734 8.34375 69.5703C8.71875 70.3672 9.1875 71.0703 9.75 71.6797C10.3125 72.2734 10.9766 72.75 11.7422 73.1094C12.5078 73.4688 13.3984 73.6484 14.4141 73.6484C15.4297 73.6484 16.3203 73.4688 17.0859 73.1094C17.8672 72.75 18.5312 72.2734 19.0781 71.6797C19.6406 71.0703 20.1016 70.375 20.4609 69.5938C20.8359 68.7969 21.1328 67.9688 21.3516 67.1094C21.5859 66.2344 21.7422 65.3516 21.8203 64.4609C21.9141 63.5703 21.9688 62.7188 21.9844 61.9062V57.9688ZM40.0641 42.875L45.6187 59.9375L51.6187 42.875H57.0094V77H52.7906V63.3828L53.1422 49.1328L46.8375 67.5078H44.3531L38.5641 49.625L38.9156 63.3828V77H34.6969V42.875H40.0641ZM66.0891 77V42.875H73.9875C76.3625 42.9062 78.4797 43.3125 80.3391 44.0938C82.2141 44.8594 83.7922 45.9375 85.0734 47.3281C86.3703 48.7031 87.3547 50.3594 88.0266 52.2969C88.7141 54.2188 89.0656 56.3516 89.0812 58.6953V61.2031C89.0656 63.5469 88.7141 65.6875 88.0266 67.625C87.3547 69.5469 86.3703 71.2031 85.0734 72.5938C83.7922 73.9688 82.2141 75.0469 80.3391 75.8281C78.4797 76.5938 76.3625 76.9844 73.9875 77H66.0891ZM70.4953 46.4375V73.4609H73.9875C75.8312 73.4453 77.425 73.125 78.7687 72.5C80.1125 71.8594 81.2219 70.9922 82.0969 69.8984C82.9875 68.8047 83.6437 67.5156 84.0656 66.0312C84.5031 64.5469 84.7297 62.9375 84.7453 61.2031V58.6484C84.7297 56.9141 84.5031 55.3125 84.0656 53.8438C83.6281 52.3594 82.9719 51.0781 82.0969 50C81.2219 48.9062 80.1125 48.0469 78.7687 47.4219C77.425 46.7969 75.8312 46.4688 73.9875 46.4375H70.4953ZM119.255 64.6016C119.255 66.4141 119.036 68.1094 118.598 69.6875C118.161 71.25 117.52 72.6094 116.677 73.7656C115.833 74.9219 114.786 75.8281 113.536 76.4844C112.302 77.1406 110.88 77.4688 109.27 77.4688C107.645 77.4688 106.231 77.1797 105.028 76.6016C103.841 76.0234 102.825 75.1953 101.981 74.1172L101.77 77H97.7859V41H102.122V54.3594C102.95 53.3281 103.95 52.5391 105.122 51.9922C106.294 51.4453 107.661 51.1719 109.223 51.1719C110.848 51.1719 112.286 51.4922 113.536 52.1328C114.786 52.7734 115.833 53.6641 116.677 54.8047C117.52 55.9453 118.161 57.3125 118.598 58.9062C119.036 60.4844 119.255 62.2188 119.255 64.1094V64.6016ZM114.919 64.1094C114.919 62.875 114.794 61.7031 114.544 60.5938C114.309 59.4688 113.927 58.4844 113.395 57.6406C112.864 56.7812 112.169 56.1016 111.309 55.6016C110.45 55.1016 109.395 54.8516 108.145 54.8516C107.395 54.8516 106.708 54.9531 106.083 55.1562C105.458 55.3438 104.895 55.6172 104.395 55.9766C103.911 56.3203 103.473 56.7344 103.083 57.2188C102.708 57.6875 102.387 58.2031 102.122 58.7656V69.8516C102.403 70.4141 102.731 70.9375 103.106 71.4219C103.497 71.8906 103.942 72.3047 104.442 72.6641C104.942 73.0234 105.505 73.3047 106.13 73.5078C106.755 73.6953 107.442 73.7891 108.192 73.7891C109.38 73.7891 110.395 73.5469 111.239 73.0625C112.098 72.5625 112.794 71.8906 113.325 71.0469C113.872 70.2031 114.27 69.2266 114.52 68.1172C114.786 67.0078 114.919 65.8359 114.919 64.6016V64.1094Z" fill="white"/>
<circle cx="14" cy="14" r="14" fill="#7CE6D7"/>
<circle cx="54" cy="14" r="14" fill="#E684C3"/>
<circle cx="94" cy="14" r="14" fill="#FFBD4A"/>
<path d="M5.3291 93.2031L8.39648 101.245L11.6396 93.2031H12.3779V106H11.9033V99.7773L11.9209 93.8447L8.60742 101.869H8.16797L5.10059 93.9326L5.10938 99.7773V106H4.63477V93.2031H5.3291ZM25.6955 100.56C25.6896 100.976 25.6515 101.403 25.5812 101.843C25.5109 102.282 25.4054 102.71 25.2648 103.126C25.1242 103.542 24.9425 103.935 24.7199 104.304C24.5031 104.673 24.2423 104.998 23.9377 105.279C23.633 105.555 23.2814 105.774 22.883 105.938C22.4904 106.097 22.0509 106.176 21.5646 106.176C21.0783 106.176 20.6359 106.097 20.2375 105.938C19.8449 105.774 19.4933 105.555 19.1828 105.279C18.8781 104.998 18.6144 104.673 18.3918 104.304C18.1691 103.935 17.9845 103.542 17.838 103.126C17.6974 102.71 17.589 102.282 17.5129 101.843C17.4425 101.403 17.4045 100.976 17.3986 100.56V98.6436C17.4045 98.2275 17.4425 97.7998 17.5129 97.3604C17.5832 96.9209 17.6886 96.4932 17.8293 96.0771C17.9757 95.6611 18.1574 95.2686 18.3742 94.8994C18.5968 94.5303 18.8605 94.208 19.1652 93.9326C19.4757 93.6514 19.8273 93.4316 20.2199 93.2734C20.6125 93.1094 21.0548 93.0273 21.547 93.0273C22.0392 93.0273 22.4816 93.1094 22.8742 93.2734C23.2668 93.4316 23.6154 93.6514 23.9201 93.9326C24.2306 94.208 24.4943 94.5303 24.7111 94.8994C24.9338 95.2686 25.1154 95.6611 25.256 96.0771C25.4025 96.4932 25.5109 96.9209 25.5812 97.3604C25.6515 97.7998 25.6896 98.2275 25.6955 98.6436V100.56ZM25.2296 98.626C25.2238 98.251 25.1916 97.8643 25.133 97.4658C25.0744 97.0674 24.9836 96.6807 24.8605 96.3057C24.7375 95.9248 24.5793 95.5645 24.3859 95.2246C24.1925 94.8848 23.9582 94.5889 23.6828 94.3369C23.4132 94.0791 23.0998 93.877 22.7423 93.7305C22.3908 93.5781 21.9923 93.502 21.547 93.502C21.1017 93.502 20.7033 93.5781 20.3517 93.7305C20.0002 93.877 19.6867 94.0791 19.4113 94.3369C19.1418 94.5889 18.9103 94.8848 18.717 95.2246C18.5295 95.5645 18.3742 95.9248 18.2511 96.3057C18.1281 96.6865 18.0373 97.0762 17.9787 97.4746C17.9201 97.873 17.8879 98.2568 17.882 98.626V100.56C17.8879 100.935 17.9201 101.321 17.9787 101.72C18.0373 102.118 18.1281 102.508 18.2511 102.889C18.3742 103.27 18.5324 103.63 18.7257 103.97C18.9191 104.31 19.1505 104.608 19.4201 104.866C19.6955 105.124 20.0089 105.329 20.3605 105.481C20.7179 105.628 21.1193 105.701 21.5646 105.701C22.0099 105.701 22.4084 105.628 22.7599 105.481C23.1173 105.329 23.4308 105.124 23.7004 104.866C23.9699 104.608 24.2013 104.31 24.3947 103.97C24.588 103.63 24.7463 103.27 24.8693 102.889C24.9923 102.508 25.0802 102.118 25.133 101.72C25.1916 101.321 25.2238 100.935 25.2296 100.56V98.626ZM34.4691 104.752L34.6624 105.438L34.8558 104.752L38.5999 93.2031H39.1009L34.9349 106H34.39L30.2327 93.2031H30.7249L34.4691 104.752ZM44.3149 93.2031H51.3989V93.6953H48.0503V105.525H51.3989V106H44.3149V105.525H47.5405V93.6953H44.3149V93.2031ZM63.9518 99.6543H58.0016V105.525H64.7868V106H57.5358V93.2031H64.7868V93.6777H58.0016V99.1797H63.9518V99.6543ZM90.1562 102.177H84.7158L83.4677 106H82.9755L87.1679 93.2031H87.7129L91.9052 106H91.413L90.1562 102.177ZM84.8652 101.702H90.0068L87.4404 93.8535L84.8652 101.702ZM97.6554 100.595V106H97.1808V93.2031H101.083C101.628 93.2148 102.135 93.3115 102.604 93.4932C103.072 93.6689 103.48 93.9209 103.825 94.249C104.171 94.5713 104.441 94.9609 104.634 95.418C104.833 95.8691 104.933 96.376 104.933 96.9385C104.933 97.501 104.833 98.0049 104.634 98.4502C104.435 98.8955 104.162 99.2764 103.817 99.5928C103.471 99.9092 103.064 100.155 102.595 100.331C102.126 100.501 101.622 100.589 101.083 100.595H97.6554ZM97.6554 100.12H101.083C101.546 100.114 101.983 100.038 102.393 99.8916C102.803 99.7393 103.16 99.5283 103.465 99.2588C103.77 98.9834 104.01 98.6523 104.186 98.2656C104.367 97.8789 104.458 97.4424 104.458 96.9561C104.458 96.4639 104.37 96.0186 104.194 95.6201C104.025 95.2217 103.787 94.8818 103.483 94.6006C103.184 94.3135 102.826 94.0908 102.41 93.9326C102 93.7744 101.558 93.6895 101.083 93.6777H97.6554V100.12ZM110.806 100.595V106H110.331V93.2031H114.234C114.779 93.2148 115.285 93.3115 115.754 93.4932C116.223 93.6689 116.63 93.9209 116.976 94.249C117.322 94.5713 117.591 94.9609 117.784 95.418C117.984 95.8691 118.083 96.376 118.083 96.9385C118.083 97.501 117.984 98.0049 117.784 98.4502C117.585 98.8955 117.313 99.2764 116.967 99.5928C116.621 99.9092 116.214 100.155 115.745 100.331C115.277 100.501 114.773 100.589 114.234 100.595H110.806ZM110.806 100.12H114.234C114.697 100.114 115.133 100.038 115.543 99.8916C115.953 99.7393 116.311 99.5283 116.616 99.2588C116.92 98.9834 117.16 98.6523 117.336 98.2656C117.518 97.8789 117.609 97.4424 117.609 96.9561C117.609 96.4639 117.521 96.0186 117.345 95.6201C117.175 95.2217 116.938 94.8818 116.633 94.6006C116.334 94.3135 115.977 94.0908 115.561 93.9326C115.151 93.7744 114.708 93.6895 114.234 93.6777H110.806V100.12Z" fill="white"/>
</svg>
